<?xml version="1.0" encoding="UTF-8"?>
<svg width="1000px" height="220px" viewBox="0 0 1000 220" version="1.1" xmlns="http://www.w3.org/2000/svg">
  <g>
    <path fill="#27AAE1" d="M978.62,180.46c-9.86,0-17.88,8.02-17.88,17.88s8.02,17.88,17.88,17.88,17.88-8.02,17.88-17.88-8.02-17.88-17.88-17.88Z"/>
    <path fill="#000000" d="M920.97,157.64l-1.14,1.4-1.41,1.69c-14.93,17.46-36.56,27.43-59.65,27.44-17.79,0-35.17-6.17-48.96-17.38-16.29-13.21-26.46-31.98-28.62-52.86-2.15-20.72,3.87-40.99,16.96-57.09,14.97-18.46,37.2-29.05,60.99-29.05,17.79,0,35.17,6.17,48.96,17.38,4.3,3.49,7.39,6.49,9.74,9.44l1.36,1.71,21.74-20.63-1.29-1.45c-20.54-23.12-50.08-36.37-81.05-36.37-26.39,0-51.77,9.63-71.46,27.12-21.56,19.15-34.4,45.57-36.17,74.39-1.77,28.85,7.79,56.6,26.92,78.12,20.54,23.12,50.08,36.37,81.05,36.37h0c26.39,0,51.77-9.63,71.49-27.15,3.29-3.06,8.14-7.73,12.17-12.86l1.22-1.54-22.86-18.68Z"/>
    <rect fill="#000000" x="678.95" y="6.77" width="29.63" height="206.86"/>
    <path fill="#000000" d="M533.91,6.7h-89.88v206.94h29.63V36.32h60.71c36.58,0,67.48,30.53,67.48,66.68v110.19h29.63v-109.24c-.3-53.63-44.06-97.25-97.56-97.25Z"/>
    <path fill="#27AAE1" d="M402.69,110.02c0,59.71-48.34,108.12-107.97,108.12s-107.97-48.41-107.97-108.12S235.09,1.9,294.72,1.9s107.97,48.41,107.97,108.12ZM294.72,31.82c-43.27,0-78.35,35.01-78.35,78.2s35.08,78.2,78.35,78.2,78.35-35.01,78.35-78.2-35.08-78.2-78.35-78.2Z"/>
    <path fill="#000000" d="M87.65,216.51c-30.16,0-59.49-10.52-82.58-29.63l-1.57-1.3,17.81-20.83,1.52,1.25c21.15,17.41,41.44,25.17,65.78,25.17s42.09-12.49,42.09-31.08v-.66c0-16.55-8.03-26.75-51.9-36.6-25.74-6.25-40.42-12.1-50.71-20.19-12.01-9.45-17.61-22.19-17.61-40.1v-.66C10.47,27.69,38.83,3.81,79.44,3.81h.77c.84-.02,1.74-.03,2.64-.03,24.52,0,48.74,8.02,68.18,22.59l1.56,1.17-15.56,21.95-1.62-1.11c-19.11-13.08-37.39-19.44-55.88-19.44-23.04,0-39.13,12.11-39.13,29.46v.66c0,21.19,15.88,28.63,53.88,38.23,24.32,5.85,40.43,12.81,50.68,21.89,10.44,9.24,15.3,21.02,15.3,37.06v.3c0,36.43-28.5,59.97-72.6,59.97Z"/>
  </g>
</svg>