<svg xmlns="http://www.w3.org/2000/svg" width="320" height="320" viewBox="0 0 320 320"><rect width="320" height="320" fill="white" rx="8"/><polygon points="160.0,129.0 178.2,139.5 178.2,160.5 160.0,171.0 141.8,160.5 141.8,139.5" fill="none" stroke="#D3D1C7" stroke-width="0.7"/><polygon points="160.0,108.0 196.4,129.0 196.4,171.0 160.0,192.0 123.6,171.0 123.6,129.0" fill="none" stroke="#D3D1C7" stroke-width="0.7"/><polygon points="160.0,87.0 214.6,118.5 214.6,181.5 160.0,213.0 105.4,181.5 105.4,118.5" fill="none" stroke="#D3D1C7" stroke-width="0.7"/><polygon points="160.0,66.0 232.7,108.0 232.7,192.0 160.0,234.0 87.3,192.0 87.3,108.0" fill="none" stroke="#D3D1C7" stroke-width="0.7"/><polygon points="160.0,45.0 250.9,97.5 250.9,202.5 160.0,255.0 69.1,202.5 69.1,97.5" fill="none" stroke="#D3D1C7" stroke-width="0.7"/><line x1="160.0" y1="150.0" x2="160.0" y2="45.0" stroke="#D3D1C7" stroke-width="0.7"/><line x1="160.0" y1="150.0" x2="250.9" y2="97.5" stroke="#D3D1C7" stroke-width="0.7"/><line x1="160.0" y1="150.0" x2="250.9" y2="202.5" stroke="#D3D1C7" stroke-width="0.7"/><line x1="160.0" y1="150.0" x2="160.0" y2="255.0" stroke="#D3D1C7" stroke-width="0.7"/><line x1="160.0" y1="150.0" x2="69.1" y2="202.5" stroke="#D3D1C7" stroke-width="0.7"/><line x1="160.0" y1="150.0" x2="69.1" y2="97.5" stroke="#D3D1C7" stroke-width="0.7"/><text x="164.0" y="126.0" font-size="9" fill="#B4B2A9" font-family="Helvetica,Arial,sans-serif">1</text><text x="164.0" y="105.0" font-size="9" fill="#B4B2A9" font-family="Helvetica,Arial,sans-serif">2</text><text x="164.0" y="84.0" font-size="9" fill="#B4B2A9" font-family="Helvetica,Arial,sans-serif">3</text><text x="164.0" y="63.0" font-size="9" fill="#B4B2A9" font-family="Helvetica,Arial,sans-serif">4</text><text x="164.0" y="42.0" font-size="9" fill="#B4B2A9" font-family="Helvetica,Arial,sans-serif">5</text><polygon points="160.0,87.0 214.6,118.5 214.6,181.5 160.0,213.0 105.4,181.5 105.4,118.5" fill="rgba(136,135,128,0.15)" stroke="#888780" stroke-width="2"/><circle cx="160.0" cy="87.0" r="4" fill="#888780"/><circle cx="214.6" cy="118.5" r="4" fill="#888780"/><circle cx="214.6" cy="181.5" r="4" fill="#888780"/><circle cx="160.0" cy="213.0" r="4" fill="#888780"/><circle cx="105.4" cy="181.5" r="4" fill="#888780"/><circle cx="105.4" cy="118.5" r="4" fill="#888780"/><text x="160.0" y="21.0" text-anchor="middle" dominant-baseline="middle" font-size="11" fill="#5F5E5A" font-family="Helvetica,Arial,sans-serif">Sensemaking</text><text x="271.7" y="85.5" text-anchor="start" dominant-baseline="middle" font-size="11" fill="#5F5E5A" font-family="Helvetica,Arial,sans-serif">Coordination</text><text x="271.7" y="214.5" text-anchor="start" dominant-baseline="middle" font-size="11" fill="#5F5E5A" font-family="Helvetica,Arial,sans-serif">Decision-making</text><text x="160.0" y="279.0" text-anchor="middle" dominant-baseline="middle" font-size="11" fill="#5F5E5A" font-family="Helvetica,Arial,sans-serif">Communication</text><text x="48.3" y="214.5" text-anchor="end" dominant-baseline="middle" font-size="11" fill="#5F5E5A" font-family="Helvetica,Arial,sans-serif">Adaptive capacity</text><text x="48.3" y="85.5" text-anchor="end" dominant-baseline="middle" font-size="11" fill="#5F5E5A" font-family="Helvetica,Arial,sans-serif">Lifecycle mgmt</text><text x="160.0" y="302" text-anchor="middle" font-size="13" font-weight="500" fill="#5F5E5A" font-family="Helvetica,Arial,sans-serif">Shea Hoey — DEFCON 1 (9314)</text><text x="160.0" y="316" text-anchor="middle" font-size="11" fill="#888780" font-family="Helvetica,Arial,sans-serif">avg 3.0/5</text></svg>